<mxfile host="app.diagrams.net" modified="2024-03-05T07:43:23.058Z" agent="Mozilla/5.0 (Windows NT 10.0; Win64; x64) AppleWebKit/537.36 (KHTML, like Gecko) Chrome/122.0.0.0 Safari/537.36" etag="qo3rSxYowaiFUqYwhxcr" version="23.1.7" type="github">
  <diagram name="Страница — 1" id="sAC0R6vlRr4YbSgn06Vc">
    <mxGraphModel dx="2812" dy="815" grid="1" gridSize="10" guides="1" tooltips="1" connect="1" arrows="1" fold="1" page="1" pageScale="1" pageWidth="827" pageHeight="1169" math="0" shadow="0">
      <root>
        <mxCell id="0" />
        <mxCell id="1" parent="0" />
        <mxCell id="vrKzZIym37Co1-5rcD8F-3" value="" style="edgeStyle=orthogonalEdgeStyle;rounded=0;orthogonalLoop=1;jettySize=auto;html=1;" edge="1" parent="1" source="vrKzZIym37Co1-5rcD8F-1" target="vrKzZIym37Co1-5rcD8F-2">
          <mxGeometry relative="1" as="geometry" />
        </mxCell>
        <mxCell id="vrKzZIym37Co1-5rcD8F-5" value="" style="edgeStyle=orthogonalEdgeStyle;rounded=0;orthogonalLoop=1;jettySize=auto;html=1;" edge="1" parent="1" source="vrKzZIym37Co1-5rcD8F-1" target="vrKzZIym37Co1-5rcD8F-4">
          <mxGeometry relative="1" as="geometry" />
        </mxCell>
        <mxCell id="vrKzZIym37Co1-5rcD8F-29" style="edgeStyle=orthogonalEdgeStyle;rounded=0;orthogonalLoop=1;jettySize=auto;html=1;entryX=0.5;entryY=0;entryDx=0;entryDy=0;" edge="1" parent="1" source="vrKzZIym37Co1-5rcD8F-1" target="vrKzZIym37Co1-5rcD8F-19">
          <mxGeometry relative="1" as="geometry" />
        </mxCell>
        <mxCell id="vrKzZIym37Co1-5rcD8F-30" style="edgeStyle=orthogonalEdgeStyle;rounded=0;orthogonalLoop=1;jettySize=auto;html=1;entryX=0.5;entryY=0;entryDx=0;entryDy=0;" edge="1" parent="1" source="vrKzZIym37Co1-5rcD8F-1" target="vrKzZIym37Co1-5rcD8F-17">
          <mxGeometry relative="1" as="geometry" />
        </mxCell>
        <mxCell id="vrKzZIym37Co1-5rcD8F-31" style="edgeStyle=orthogonalEdgeStyle;rounded=0;orthogonalLoop=1;jettySize=auto;html=1;entryX=1;entryY=0.5;entryDx=0;entryDy=0;" edge="1" parent="1" source="vrKzZIym37Co1-5rcD8F-1" target="vrKzZIym37Co1-5rcD8F-24">
          <mxGeometry relative="1" as="geometry" />
        </mxCell>
        <mxCell id="vrKzZIym37Co1-5rcD8F-1" value="Шаблоны(паттерны) проектирования" style="rounded=0;whiteSpace=wrap;html=1;fontStyle=1" vertex="1" parent="1">
          <mxGeometry x="350" y="360" width="140" height="100" as="geometry" />
        </mxCell>
        <mxCell id="vrKzZIym37Co1-5rcD8F-2" value="Репозиторий" style="rounded=0;whiteSpace=wrap;html=1;" vertex="1" parent="1">
          <mxGeometry x="650" y="380" width="120" height="60" as="geometry" />
        </mxCell>
        <mxCell id="vrKzZIym37Co1-5rcD8F-9" value="" style="edgeStyle=orthogonalEdgeStyle;rounded=0;orthogonalLoop=1;jettySize=auto;html=1;" edge="1" parent="1" source="vrKzZIym37Co1-5rcD8F-4" target="vrKzZIym37Co1-5rcD8F-8">
          <mxGeometry relative="1" as="geometry" />
        </mxCell>
        <mxCell id="vrKzZIym37Co1-5rcD8F-13" value="" style="edgeStyle=orthogonalEdgeStyle;rounded=0;orthogonalLoop=1;jettySize=auto;html=1;" edge="1" parent="1" source="vrKzZIym37Co1-5rcD8F-4" target="vrKzZIym37Co1-5rcD8F-12">
          <mxGeometry relative="1" as="geometry" />
        </mxCell>
        <mxCell id="vrKzZIym37Co1-5rcD8F-4" value="Объектно-ориентированный" style="rounded=0;whiteSpace=wrap;html=1;" vertex="1" parent="1">
          <mxGeometry x="360" y="190" width="120" height="60" as="geometry" />
        </mxCell>
        <mxCell id="vrKzZIym37Co1-5rcD8F-8" value="Модель предметной области" style="ellipse;whiteSpace=wrap;html=1;rounded=0;" vertex="1" parent="1">
          <mxGeometry x="300" y="70" width="70" height="60" as="geometry" />
        </mxCell>
        <mxCell id="vrKzZIym37Co1-5rcD8F-15" style="edgeStyle=orthogonalEdgeStyle;rounded=0;orthogonalLoop=1;jettySize=auto;html=1;entryX=1;entryY=0.5;entryDx=0;entryDy=0;" edge="1" parent="1" source="vrKzZIym37Co1-5rcD8F-10" target="vrKzZIym37Co1-5rcD8F-8">
          <mxGeometry relative="1" as="geometry" />
        </mxCell>
        <mxCell id="vrKzZIym37Co1-5rcD8F-10" value="Модель таблицы" style="ellipse;whiteSpace=wrap;html=1;rounded=0;" vertex="1" parent="1">
          <mxGeometry x="430" y="70" width="70" height="60" as="geometry" />
        </mxCell>
        <mxCell id="vrKzZIym37Co1-5rcD8F-14" style="edgeStyle=orthogonalEdgeStyle;rounded=0;orthogonalLoop=1;jettySize=auto;html=1;entryX=1;entryY=0.5;entryDx=0;entryDy=0;" edge="1" parent="1" source="vrKzZIym37Co1-5rcD8F-12" target="vrKzZIym37Co1-5rcD8F-10">
          <mxGeometry relative="1" as="geometry" />
        </mxCell>
        <mxCell id="vrKzZIym37Co1-5rcD8F-12" value="Сценарий транзакции" style="ellipse;whiteSpace=wrap;html=1;rounded=0;" vertex="1" parent="1">
          <mxGeometry x="580" y="60" width="80" height="80" as="geometry" />
        </mxCell>
        <mxCell id="vrKzZIym37Co1-5rcD8F-16" value="Многоуровневая система" style="swimlane;whiteSpace=wrap;html=1;" vertex="1" parent="1">
          <mxGeometry x="290" y="30" width="390" height="250" as="geometry" />
        </mxCell>
        <mxCell id="vrKzZIym37Co1-5rcD8F-17" value="Архитектурные паттерны" style="swimlane;whiteSpace=wrap;html=1;" vertex="1" parent="1">
          <mxGeometry x="94" y="660" width="320" height="220" as="geometry" />
        </mxCell>
        <mxCell id="vrKzZIym37Co1-5rcD8F-18" value="Клиент-сервер" style="rounded=0;whiteSpace=wrap;html=1;" vertex="1" parent="vrKzZIym37Co1-5rcD8F-17">
          <mxGeometry x="10" y="40" width="120" height="60" as="geometry" />
        </mxCell>
        <mxCell id="vrKzZIym37Co1-5rcD8F-21" value="Модель-представление-контроллер" style="rounded=0;whiteSpace=wrap;html=1;" vertex="1" parent="vrKzZIym37Co1-5rcD8F-17">
          <mxGeometry x="190" y="40" width="120" height="60" as="geometry" />
        </mxCell>
        <mxCell id="vrKzZIym37Co1-5rcD8F-22" value="Управляемая событиями архитектура" style="rounded=0;whiteSpace=wrap;html=1;" vertex="1" parent="vrKzZIym37Co1-5rcD8F-17">
          <mxGeometry x="10" y="135" width="120" height="60" as="geometry" />
        </mxCell>
        <mxCell id="vrKzZIym37Co1-5rcD8F-23" value="Архитектура на основе микросервисов&amp;nbsp;" style="rounded=0;whiteSpace=wrap;html=1;" vertex="1" parent="vrKzZIym37Co1-5rcD8F-17">
          <mxGeometry x="190" y="135" width="120" height="60" as="geometry" />
        </mxCell>
        <mxCell id="vrKzZIym37Co1-5rcD8F-19" value="Обработка больших данных" style="swimlane;whiteSpace=wrap;html=1;" vertex="1" parent="1">
          <mxGeometry x="460" y="660" width="200" height="110" as="geometry" />
        </mxCell>
        <mxCell id="vrKzZIym37Co1-5rcD8F-20" value="Конвейер(фильтр)" style="rounded=0;whiteSpace=wrap;html=1;" vertex="1" parent="vrKzZIym37Co1-5rcD8F-19">
          <mxGeometry x="40" y="30" width="120" height="60" as="geometry" />
        </mxCell>
        <mxCell id="vrKzZIym37Co1-5rcD8F-24" value="Вспомогающие паттерны" style="swimlane;whiteSpace=wrap;html=1;" vertex="1" parent="1">
          <mxGeometry x="-180" y="290" width="370" height="240" as="geometry" />
        </mxCell>
        <mxCell id="vrKzZIym37Co1-5rcD8F-25" value="Абстрактная фабрика" style="rounded=0;whiteSpace=wrap;html=1;" vertex="1" parent="vrKzZIym37Co1-5rcD8F-24">
          <mxGeometry x="10" y="40" width="120" height="60" as="geometry" />
        </mxCell>
        <mxCell id="vrKzZIym37Co1-5rcD8F-26" value="Наблюдатель" style="rounded=0;whiteSpace=wrap;html=1;" vertex="1" parent="vrKzZIym37Co1-5rcD8F-24">
          <mxGeometry x="230" y="40" width="120" height="60" as="geometry" />
        </mxCell>
        <mxCell id="vrKzZIym37Co1-5rcD8F-27" value="Слушатель" style="rounded=0;whiteSpace=wrap;html=1;" vertex="1" parent="vrKzZIym37Co1-5rcD8F-24">
          <mxGeometry x="10" y="170" width="120" height="60" as="geometry" />
        </mxCell>
        <mxCell id="vrKzZIym37Co1-5rcD8F-28" value="Рабочий" style="rounded=0;whiteSpace=wrap;html=1;" vertex="1" parent="vrKzZIym37Co1-5rcD8F-24">
          <mxGeometry x="230" y="170" width="120" height="60" as="geometry" />
        </mxCell>
      </root>
    </mxGraphModel>
  </diagram>
</mxfile>
